<svg display="none" xmlns="http://www.w3.org/2000/svg">

   <symbol id="heart" viewBox="0.131 0.056 23.738 20.975">
      <path d="M 11.563 20.787 C 6.166 17.772 2.925 14.599 1.373 11.759 C -0.226 8.834 -0.152 5.918 0.863 3.919 C 1.889 1.897 4.068 0.424 6.224 0.153 C 8.372 -0.117 10.28 0.599 12.001 2.226 C 13.8 0.058 15.627 -0.117 17.776 0.153 C 19.932 0.424 22.111 1.897 23.137 3.919 C 24.152 5.918 24.226 8.834 22.627 11.759 C 21.074 14.599 17.834 17.772 12.436 20.787 L 12 21.031 Z M 21.048 10.896 C 22.43 8.368 22.372 6.389 21.532 4.734 C 20.703 3.101 19.304 2.159 17.552 1.939 C 15.792 1.718 14.087 2.222 12.707 4.093 L 12 5.052 L 11.293 4.093 C 9.912 2.222 8.208 1.718 6.448 1.939 C 4.696 2.159 3.297 3.101 2.468 4.734 C 1.628 6.389 1.57 8.368 2.952 10.896 C 4.38 13.508 7.073 16.184 12 18.969 C 16.926 16.184 19.619 13.508 21.048 10.896 Z"/>
   </symbol>

   <symbol id="person" viewBox="0.1 0.1 14.8 21.8">
      <path d="M 12.733 5.444 C 12.733 6.852 12.104 8.297 11.209 9.215 C 10.311 10.136 8.884 10.789 7.5 10.789 C 6.116 10.789 4.689 10.136 3.791 9.215 C 2.896 8.297 2.267 6.852 2.267 5.444 C 2.267 4.037 2.896 2.592 3.791 1.673 C 4.689 0.753 6.116 0.1 7.5 0.1 C 8.884 0.1 10.311 0.753 11.209 1.673 C 12.104 2.592 12.733 4.037 12.733 5.444 Z M 9.92 2.93 C 9.248 2.242 8.509 1.9 7.5 1.9 C 6.491 1.9 5.752 2.242 5.08 2.93 C 4.407 3.62 4.067 4.397 4.067 5.444 C 4.067 6.492 4.407 7.268 5.08 7.959 C 5.752 8.647 6.491 8.989 7.5 8.989 C 8.509 8.989 9.248 8.647 9.92 7.959 C 10.593 7.268 10.933 6.492 10.933 5.444 C 10.933 4.397 10.593 3.62 9.92 2.93 Z"/>
      <path d="M 0.1 15.444 C 0.138 13.73 0.851 12.007 1.942 10.888 C 3.035 9.767 4.733 9.03 6.417 8.989 L 8.583 8.989 C 10.267 9.03 11.965 9.767 13.058 10.888 C 14.149 12.007 14.862 13.73 14.9 15.444 L 14.9 19.889 C 14.862 20.376 14.634 20.988 14.327 21.303 C 14.018 21.62 13.404 21.859 12.917 21.9 L 2.083 21.9 C 1.596 21.859 0.982 21.62 0.673 21.303 C 0.366 20.988 0.138 20.376 0.1 19.889 Z M 1.9 19.889 C 1.862 20.016 1.877 19.959 1.962 20.046 C 2.045 20.132 1.972 20.141 2.083 20.1 L 12.917 20.1 C 13.028 20.141 12.955 20.132 13.038 20.046 C 13.123 19.959 13.138 20.016 13.1 19.889 L 13.1 15.444 C 13.138 14.09 12.638 13.036 11.769 12.144 C 10.902 11.255 9.891 10.748 8.583 10.789 L 6.417 10.789 C 5.109 10.748 4.098 11.255 3.231 12.144 C 2.362 13.036 1.862 14.09 1.9 15.444 Z"/>
   </symbol>

   <symbol id="lock" viewBox="0.1 0.1 16.8 21.8">
      <path d="M 2 8.9 C 1.969 8.887 1.959 8.878 1.956 8.875 C 1.958 8.88 1.962 8.897 1.929 8.929 C 1.897 8.962 1.88 8.958 1.875 8.956 C 1.878 8.959 1.887 8.969 1.9 9 L 1.9 20 C 1.887 20.031 1.878 20.041 1.875 20.044 C 1.88 20.042 1.897 20.038 1.929 20.071 C 1.962 20.103 1.958 20.12 1.956 20.125 C 1.959 20.122 1.969 20.113 2 20.1 L 15 20.1 C 15.031 20.113 15.041 20.122 15.044 20.125 C 15.042 20.12 15.038 20.103 15.071 20.071 C 15.103 20.038 15.12 20.042 15.125 20.044 C 15.122 20.041 15.113 20.031 15.1 20 L 15.1 9 C 15.113 8.969 15.122 8.959 15.125 8.956 C 15.12 8.958 15.103 8.962 15.071 8.929 C 15.038 8.897 15.042 8.88 15.044 8.875 C 15.041 8.878 15.031 8.887 15 8.9 Z M 11.6 5 C 11.639 4.079 11.302 3.418 10.692 2.808 C 10.082 2.198 9.421 1.9 8.5 1.9 C 7.579 1.9 6.918 2.198 6.308 2.808 C 5.698 3.418 5.361 4.079 5.4 5 L 5.4 7.1 L 11.6 7.1 Z M 15 7.1 C 15.46 7.139 16.049 7.362 16.344 7.656 C 16.638 7.951 16.861 8.54 16.9 9 L 16.9 20 C 16.861 20.46 16.638 21.049 16.344 21.344 C 16.049 21.638 15.46 21.861 15 21.9 L 2 21.9 C 1.54 21.861 0.951 21.638 0.656 21.344 C 0.362 21.049 0.139 20.46 0.1 20 L 0.1 9 C 0.139 8.54 0.362 7.951 0.656 7.657 C 0.951 7.362 1.54 7.139 2 7.1 L 3.6 7.1 L 3.6 5 C 3.639 3.712 4.198 2.372 5.035 1.535 C 5.872 0.698 7.212 0.1 8.5 0.1 C 9.788 0.1 11.128 0.698 11.965 1.535 C 12.802 2.372 13.361 3.712 13.4 5 L 13.4 7.1 Z"/>
   </symbol>

   <symbol id="arrow" viewBox="0 0 64 64">
      <path d="M 15.543 31.043 L 21.907 24.679 C 22.297 24.288 22.931 24.288 23.321 24.679 C 23.712 25.069 23.712 25.703 23.321 26.093 L 18.664 30.75 L 47.75 30.75 C 48.302 30.75 48.75 31.198 48.75 31.75 C 48.75 32.302 48.302 32.75 47.75 32.75 L 18.664 32.75 L 23.321 37.407 C 23.712 37.797 23.712 38.431 23.321 38.821 C 22.931 39.212 22.297 39.212 21.907 38.821 L 15.543 32.457 C 15.152 32.067 15.152 31.433 15.543 31.043 Z"/>
   </symbol>

   <symbol id="instagram" viewBox="0 0 35 35">
      <path d="M17.5 0C7.83502 0 0 7.83502 0 17.5C0 27.165 7.83502 35 17.5 35C27.165 35 35 27.165 35 17.5C35 7.83502 27.165 0 17.5 0ZM13.6523 8.22299C14.6479 8.17768 14.966 8.1666 17.5008 8.1666H17.4979C20.0335 8.1666 20.3504 8.17768 21.346 8.22299C22.3396 8.26849 23.0182 8.42579 23.6132 8.6566C24.2277 8.8948 24.7469 9.21369 25.266 9.73286C25.7852 10.2516 26.1041 10.7724 26.3433 11.3862C26.5727 11.9797 26.7302 12.6579 26.7769 13.6515C26.8216 14.6471 26.8333 14.9652 26.8333 17.5C26.8333 20.0348 26.8216 20.3522 26.7769 21.3477C26.7302 22.341 26.5727 23.0194 26.3433 23.613C26.1041 24.2267 25.7852 24.7474 25.266 25.2662C24.7474 25.7854 24.2275 26.1051 23.6138 26.3435C23.02 26.5743 22.341 26.7316 21.3473 26.7771C20.3518 26.8224 20.0346 26.8335 17.4996 26.8335C14.965 26.8335 14.6471 26.8224 13.6515 26.7771C12.6581 26.7316 11.9797 26.5743 11.3859 26.3435C10.7724 26.1051 10.2516 25.7854 9.73306 25.2662C9.21408 24.7474 8.89519 24.2267 8.6566 23.6128C8.42599 23.0194 8.26868 22.3412 8.22299 21.3475C8.17787 20.352 8.1666 20.0348 8.1666 17.5C8.1666 14.9652 8.17826 14.6469 8.22279 13.6513C8.26751 12.6581 8.42501 11.9797 8.65641 11.386C8.89558 10.7724 9.21447 10.2516 9.73364 9.73286C10.2524 9.21388 10.7732 8.89499 11.387 8.6566C11.9805 8.42579 12.6587 8.26849 13.6523 8.22299Z"/>
      <path fill-rule="evenodd" d="M16.6637 9.84865C16.8262 9.84839 17.0011 9.84847 17.1899 9.84856L17.501 9.84865C19.993 9.84865 20.2883 9.85759 21.2724 9.90231C22.1824 9.94393 22.6763 10.096 23.0053 10.2237C23.4409 10.3929 23.7514 10.5951 24.0779 10.9218C24.4046 11.2485 24.6068 11.5596 24.7764 11.9951C24.9041 12.3238 25.0564 12.8177 25.0978 13.7277C25.1425 14.7116 25.1522 15.0071 25.1522 17.498C25.1522 19.9888 25.1425 20.2844 25.0978 21.2683C25.0562 22.1783 24.9041 22.6722 24.7764 23.0008C24.6072 23.4364 24.4046 23.7465 24.0779 24.073C23.7512 24.3997 23.4411 24.6019 23.0053 24.7711C22.6767 24.8994 22.1824 25.0511 21.2724 25.0927C20.2885 25.1374 19.993 25.1471 17.501 25.1471C15.0087 25.1471 14.7134 25.1374 13.7295 25.0927C12.8195 25.0507 12.3256 24.8986 11.9964 24.7709C11.5608 24.6017 11.2497 24.3995 10.923 24.0728C10.5964 23.7461 10.3941 23.4358 10.2246 23C10.0968 22.6714 9.94457 22.1775 9.90315 21.2675C9.85843 20.2836 9.84949 19.9881 9.84949 17.4956C9.84949 15.0032 9.85843 14.7092 9.90315 13.7253C9.94477 12.8153 10.0968 12.3214 10.2246 11.9924C10.3937 11.5569 10.5964 11.2457 10.923 10.9191C11.2497 10.5924 11.5608 10.3902 11.9964 10.2206C12.3254 10.0923 12.8195 9.94062 13.7295 9.89881C14.5905 9.85992 14.9242 9.84826 16.6637 9.84631V9.84865ZM22.4828 11.3984C21.8645 11.3984 21.3628 11.8995 21.3628 12.518C21.3628 13.1363 21.8645 13.638 22.4828 13.638C23.1012 13.638 23.6028 13.1363 23.6028 12.518C23.6028 11.8997 23.1012 11.398 22.4828 11.398V11.3984ZM12.7077 17.5002C12.7077 14.8532 14.8538 12.7071 17.5008 12.7071H17.5006C20.1476 12.7071 22.2931 14.8532 22.2931 17.5002C22.2931 20.1472 20.1478 22.2923 17.5008 22.2923C14.8538 22.2923 12.7077 20.1472 12.7077 17.5002Z"/>
      <path d="M17.501 14.389C19.2192 14.389 20.6122 15.7819 20.6122 17.5002C20.6122 19.2183 19.2192 20.6113 17.501 20.6113C15.7827 20.6113 14.3899 19.2183 14.3899 17.5002C14.3899 15.7819 15.7827 14.389 17.501 14.389V14.389Z"/>
   </symbol>

   <symbol id="facebook" viewBox="0 0 35 35">
      <path d="M17.5 0C7.83502 0 0 7.83502 0 17.5C0 27.165 7.83502 35 17.5 35C27.165 35 35 27.165 35 17.5C35 7.83502 27.165 0 17.5 0ZM19.324 18.2687V27.7896H15.3847V18.2691H13.4166V14.9881H15.3847V13.0182C15.3847 10.3416 16.496 8.75 19.6533 8.75H22.2819V12.0313H20.6388C19.4097 12.0313 19.3284 12.4899 19.3284 13.3456L19.324 14.9877H22.3005L21.9522 18.2687H19.324Z"/>
   </symbol>
   
</svg>

